<svg xmlns="http://www.w3.org/2000/svg" xmlns:xlink="http://www.w3.org/1999/xlink" width="2000" zoomAndPan="magnify" viewBox="0 0 1500 449.999984" height="600" preserveAspectRatio="xMidYMid meet" version="1.0"><defs><g/></defs><g fill="#576dea" fill-opacity="1"><g transform="translate(150.972671, 351.749973)"><g><path d="M 28.125 0 L 28.125 -182.40625 L 66.234375 -182.40625 L 66.234375 0 Z M 47.359375 -207.203125 C 39.960938 -207.203125 33.734375 -209.601562 28.671875 -214.40625 C 23.617188 -219.21875 21.09375 -225.445312 21.09375 -233.09375 C 21.09375 -240.738281 23.617188 -246.96875 28.671875 -251.78125 C 33.734375 -256.59375 39.960938 -259 47.359375 -259 C 55.003906 -259 61.296875 -256.59375 66.234375 -251.78125 C 71.171875 -246.96875 73.640625 -240.738281 73.640625 -233.09375 C 73.640625 -225.445312 71.171875 -219.21875 66.234375 -214.40625 C 61.296875 -209.601562 55.003906 -207.203125 47.359375 -207.203125 Z M 47.359375 -207.203125 "/></g></g></g><g fill="#576dea" fill-opacity="1"><g transform="translate(245.691852, 351.749973)"><g><path d="M 28.125 0 L 28.125 -182.40625 L 65.484375 -182.40625 L 65.484375 -155.03125 L 71.40625 -155.03125 C 74.863281 -162.425781 81.03125 -169.332031 89.90625 -175.75 C 98.789062 -182.164062 111.988281 -185.375 129.5 -185.375 C 143.3125 -185.375 155.582031 -182.289062 166.3125 -176.125 C 177.039062 -169.957031 185.488281 -161.257812 191.65625 -150.03125 C 197.820312 -138.8125 200.90625 -125.304688 200.90625 -109.515625 L 200.90625 0 L 162.796875 0 L 162.796875 -106.5625 C 162.796875 -122.34375 158.847656 -133.992188 150.953125 -141.515625 C 143.066406 -149.046875 132.21875 -152.8125 118.40625 -152.8125 C 102.613281 -152.8125 89.96875 -147.628906 80.46875 -137.265625 C 70.976562 -126.910156 66.234375 -111.863281 66.234375 -92.125 L 66.234375 0 Z M 28.125 0 "/></g></g></g><g fill="#576dea" fill-opacity="1"><g transform="translate(468.059965, 351.749973)"><g><path d="M 61.046875 0 L 61.046875 -150.21875 L 9.984375 -150.21875 L 9.984375 -182.40625 L 61.046875 -182.40625 L 61.046875 -222.375 C 61.046875 -233.46875 64.375 -242.34375 71.03125 -249 C 77.695312 -255.664062 86.582031 -259 97.6875 -259 L 144.671875 -259 L 144.671875 -226.8125 L 109.890625 -226.8125 C 102.734375 -226.8125 99.15625 -223.109375 99.15625 -215.703125 L 99.15625 -182.40625 L 151.703125 -182.40625 L 151.703125 -150.21875 L 99.15625 -150.21875 L 99.15625 0 Z M 61.046875 0 "/></g></g></g><g fill="#000000" fill-opacity="1"><g transform="translate(620.871072, 351.749973)"><g><path d="M 28.125 0 L 28.125 -259 L 66.234375 -259 L 66.234375 0 Z M 28.125 0 "/></g></g></g><g fill="#000000" fill-opacity="1"><g transform="translate(715.590253, 351.749973)"><g><path d="M 111.734375 5.1875 C 93.234375 5.1875 77.078125 1.300781 63.265625 -6.46875 C 49.453125 -14.238281 38.660156 -25.21875 30.890625 -39.40625 C 23.117188 -53.59375 19.234375 -70.054688 19.234375 -88.796875 L 19.234375 -93.234375 C 19.234375 -112.234375 23.054688 -128.820312 30.703125 -143 C 38.359375 -157.1875 49.03125 -168.164062 62.71875 -175.9375 C 76.40625 -183.707031 92.253906 -187.59375 110.265625 -187.59375 C 127.773438 -187.59375 143.128906 -183.707031 156.328125 -175.9375 C 169.523438 -168.164062 179.820312 -157.375 187.21875 -143.5625 C 194.613281 -129.75 198.3125 -113.59375 198.3125 -95.09375 L 198.3125 -80.65625 L 58.09375 -80.65625 C 58.582031 -64.625 63.945312 -51.859375 74.1875 -42.359375 C 84.425781 -32.867188 97.191406 -28.125 112.484375 -28.125 C 126.785156 -28.125 137.570312 -31.328125 144.84375 -37.734375 C 152.125 -44.148438 157.738281 -51.550781 161.6875 -59.9375 L 193.140625 -43.65625 C 189.679688 -36.75 184.679688 -29.472656 178.140625 -21.828125 C 171.609375 -14.179688 163.039062 -7.765625 152.4375 -2.578125 C 141.832031 2.597656 128.265625 5.1875 111.734375 5.1875 Z M 58.453125 -109.890625 L 159.46875 -109.890625 C 158.476562 -123.703125 153.539062 -134.492188 144.65625 -142.265625 C 135.78125 -150.035156 124.191406 -153.921875 109.890625 -153.921875 C 95.585938 -153.921875 83.929688 -150.035156 74.921875 -142.265625 C 65.921875 -134.492188 60.429688 -123.703125 58.453125 -109.890625 Z M 58.453125 -109.890625 "/></g></g></g><g fill="#000000" fill-opacity="1"><g transform="translate(919.82846, 351.749973)"><g><path d="M 12.578125 0 L 82.140625 -92.125 L 14.0625 -182.40625 L 58.828125 -182.40625 L 106.5625 -116.921875 L 112.484375 -116.921875 L 160.203125 -182.40625 L 205.34375 -182.40625 L 136.90625 -92.125 L 206.453125 0 L 160.953125 0 L 112.484375 -66.96875 L 106.5625 -66.96875 L 58.09375 0 Z M 12.578125 0 "/></g></g></g><g fill="#000000" fill-opacity="1"><g transform="translate(1135.536618, 351.749973)"><g><path d="M 84.734375 5.1875 C 71.660156 5.1875 60.003906 2.96875 49.765625 -1.46875 C 39.523438 -5.914062 31.382812 -12.457031 25.34375 -21.09375 C 19.300781 -29.726562 16.28125 -40.210938 16.28125 -52.546875 C 16.28125 -65.117188 19.300781 -75.535156 25.34375 -83.796875 C 31.382812 -92.066406 39.644531 -98.296875 50.125 -102.484375 C 60.613281 -106.679688 72.519531 -108.78125 85.84375 -108.78125 L 141.34375 -108.78125 L 141.34375 -120.625 C 141.34375 -131.226562 138.132812 -139.734375 131.71875 -146.140625 C 125.300781 -152.554688 115.4375 -155.765625 102.125 -155.765625 C 89.050781 -155.765625 79.0625 -152.679688 72.15625 -146.515625 C 65.25 -140.347656 60.679688 -132.332031 58.453125 -122.46875 L 22.9375 -133.9375 C 25.894531 -143.800781 30.640625 -152.742188 37.171875 -160.765625 C 43.710938 -168.785156 52.410156 -175.257812 63.265625 -180.1875 C 74.117188 -185.125 87.191406 -187.59375 102.484375 -187.59375 C 126.171875 -187.59375 144.796875 -181.546875 158.359375 -169.453125 C 171.921875 -157.367188 178.703125 -140.226562 178.703125 -118.03125 L 178.703125 -42.921875 C 178.703125 -35.515625 182.15625 -31.8125 189.0625 -31.8125 L 204.609375 -31.8125 L 204.609375 0 L 176.125 0 C 167.488281 0 160.457031 -2.21875 155.03125 -6.65625 C 149.601562 -11.09375 146.890625 -17.140625 146.890625 -24.796875 L 146.890625 -25.90625 L 141.34375 -25.90625 C 139.363281 -22.195312 136.398438 -17.875 132.453125 -12.9375 C 128.515625 -8.007812 122.71875 -3.753906 115.0625 -0.171875 C 107.414062 3.398438 97.304688 5.1875 84.734375 5.1875 Z M 90.28125 -26.265625 C 105.570312 -26.265625 117.90625 -30.644531 127.28125 -39.40625 C 136.65625 -48.164062 141.34375 -60.191406 141.34375 -75.484375 L 141.34375 -79.1875 L 88.0625 -79.1875 C 77.945312 -79.1875 69.804688 -77.023438 63.640625 -72.703125 C 57.472656 -68.390625 54.390625 -62.039062 54.390625 -53.65625 C 54.390625 -45.257812 57.59375 -38.59375 64 -33.65625 C 70.414062 -28.726562 79.175781 -26.265625 90.28125 -26.265625 Z M 90.28125 -26.265625 "/></g></g></g></svg>